<!DOCTYPE svg PUBLIC "-//W3C//DTD SVG 20010904//EN" "http://www.w3.org/TR/2001/REC-SVG-20010904/DTD/svg10.dtd">
<svg version="1.0" xmlns="http://www.w3.org/2000/svg" width="200px" height="69px" viewBox="0 0 2000 690" preserveAspectRatio="xMidYMid meet">
<g id="layer101" fill="#011689" stroke="none">
 <path d="M684 675 c-11 -27 1 -50 26 -51 14 -1 28 3 32 9 4 7 12 6 24 -4 13 -11 18 -11 21 -1 3 8 25 12 63 12 37 0 60 -5 63 -12 4 -10 8 -9 17 2 9 11 13 12 17 3 6 -15 33 -17 33 -3 0 6 14 10 30 10 17 0 30 -4 30 -10 0 -5 5 -10 10 -10 6 0 10 16 10 35 l0 35 -185 0 c-150 -1 -187 -4 -191 -15z"/>
 <path d="M1077 684 c-13 -13 -7 -44 8 -44 8 0 15 -4 15 -10 0 -5 7 -10 15 -10 8 0 15 4 15 9 0 5 9 11 20 14 13 3 20 0 20 -9 0 -17 12 -18 28 -2 9 9 12 9 12 0 0 -7 7 -12 15 -12 8 0 15 5 15 10 0 6 30 10 70 10 40 0 70 -4 70 -10 0 -5 7 -10 15 -10 8 0 15 5 15 10 0 6 28 10 65 10 36 0 65 3 65 6 0 16 -23 44 -36 44 -8 0 -13 -4 -10 -8 2 -4 1 -14 -5 -22 -7 -12 -9 -10 -9 8 0 22 -2 22 -135 22 -101 0 -135 -3 -135 -12 0 -9 -3 -10 -8 -2 -8 12 -114 19 -125 8z"/>
 <path d="M1540 679 c0 -9 17 -47 25 -57 2 -2 13 3 25 10 18 10 24 10 27 1 6 -15 33 -17 33 -3 0 6 9 10 20 10 11 0 20 -4 20 -10 0 -14 28 -12 33 3 3 9 8 9 21 -2 10 -9 20 -11 24 -5 11 15 134 17 143 2 7 -10 11 -10 19 2 6 10 10 11 10 3 0 -7 7 -13 15 -13 8 0 15 5 15 10 0 6 7 10 15 10 10 0 15 9 14 28 0 24 -1 25 -9 7 -7 -16 -9 -16 -9 -4 -1 15 -23 17 -201 18 -152 1 -200 -1 -200 -11 0 -9 -3 -9 -12 0 -15 15 -28 15 -28 1z"/>
 <path d="M305 643 c6 -5 33 -15 60 -21 75 -19 152 -77 188 -141 25 -43 31 -69 35 -133 4 -73 2 -83 -27 -143 -49 -99 -152 -165 -257 -165 -58 0 -134 32 -185 78 -56 50 -75 81 -101 167 l-18 60 5 -69 c6 -87 33 -144 93 -196 158 -135 417 -80 509 108 24 49 28 69 28 142 0 73 -4 93 -28 142 -32 66 -81 112 -152 144 -51 23 -169 44 -150 27z"/>
 <path d="M217 596 c-187 -67 -252 -293 -124 -434 33 -36 52 -27 23 11 -72 94 -63 222 23 319 122 139 347 79 406 -107 20 -66 41 -74 31 -14 -11 67 -45 136 -87 173 -65 59 -187 82 -272 52z"/>
 <path d="M680 600 c0 -7 227 -10 660 -10 433 0 660 3 660 10 0 7 -227 10 -660 10 -433 0 -660 -3 -660 -10z"/>
 <path d="M696 563 c-3 -3 -6 -21 -6 -40 0 -32 2 -33 38 -33 21 0 43 5 50 12 9 9 12 9 12 0 0 -20 68 -15 73 6 4 16 5 16 6 0 1 -15 15 -17 121 -17 103 0 122 2 127 16 5 14 8 13 14 -5 11 -30 25 -28 37 6 9 24 10 25 11 5 1 -17 7 -23 25 -23 35 0 52 25 38 55 -9 20 -19 25 -46 25 -23 0 -36 -6 -41 -17 -6 -17 -7 -17 -16 -2 -7 14 -28 17 -128 18 -105 0 -120 -2 -124 -17 -4 -16 -5 -16 -6 1 0 9 -7 17 -15 17 -8 0 -17 -8 -19 -17 -4 -17 -5 -17 -6 0 -1 24 -37 21 -55 -5 -16 -22 -16 -22 -16 -2 0 17 -7 21 -34 22 -18 1 -36 -2 -40 -5z m396 -45 c-9 -9 -12 -7 -12 12 0 19 3 21 12 12 9 -9 9 -15 0 -24z m120 0 c-9 -9 -12 -7 -12 12 0 19 3 21 12 12 9 -9 9 -15 0 -24z"/>
 <path d="M1260 530 c0 -35 3 -40 23 -40 13 0 28 5 35 12 9 9 12 9 12 0 0 -10 22 -12 83 -10 81 3 82 3 80 28 -1 22 0 21 13 -7 17 -40 29 -42 42 -5 9 24 10 25 11 5 1 -27 31 -32 31 -5 1 16 1 16 11 0 8 -15 25 -17 109 -17 55 0 102 4 105 10 4 5 -3 9 -15 9 -15 0 -20 5 -18 17 6 30 26 25 39 -11 15 -40 38 -48 40 -13 1 16 2 18 6 5 6 -23 29 -23 42 0 10 16 10 16 11 -2 0 -13 5 -17 20 -13 10 3 20 1 22 -4 7 -19 27 9 33 46 6 37 5 39 -9 21 -14 -17 -16 -17 -22 -3 -7 20 -35 22 -52 5 -9 -9 -12 -9 -12 0 0 18 -38 14 -49 -5 -9 -17 -10 -17 -17 0 -6 16 -21 17 -150 16 -121 -2 -144 -4 -149 -18 -6 -14 -7 -14 -16 2 -14 25 -164 25 -191 0 -18 -16 -18 -16 -12 0 5 14 0 17 -25 17 -30 0 -31 -2 -31 -40z"/>
 <path d="M304 542 c4 -7 14 -12 22 -12 26 0 88 -37 119 -72 l30 -33 -35 32 c-79 72 -173 72 -247 1 -33 -32 -61 -94 -48 -106 4 -4 12 2 19 12 6 11 28 38 48 60 35 39 39 41 97 41 45 0 65 -5 78 -18 17 -17 16 -18 -34 -11 -31 4 -53 3 -53 -3 0 -23 29 -33 105 -35 l80 -2 -67 -3 c-38 -2 -68 -7 -68 -11 0 -23 30 -32 108 -32 l84 0 -7 28 c-22 91 -95 158 -184 169 -40 4 -52 3 -47 -5z"/>
 <path d="M806 435 c-21 -7 -44 -19 -50 -25 -7 -7 -13 -72 -16 -170 l-5 -160 40 0 40 0 -3 145 -3 145 28 11 c36 14 122 6 134 -12 5 -8 8 -76 7 -152 l-3 -137 40 0 40 0 -5 154 c-4 133 -8 157 -24 175 -36 40 -145 53 -220 26z"/>
 <path d="M1292 333 l-112 -118 2 113 3 112 -35 0 -35 0 3 -182 c2 -101 6 -185 9 -188 3 -3 57 49 120 115 l114 120 -3 -113 -3 -112 40 0 40 0 -3 185 c-2 143 -6 185 -16 185 -7 0 -63 -53 -124 -117z"/>
 <path d="M1490 260 l0 -180 40 0 40 0 0 180 0 180 -40 0 -40 0 0 -180z"/>
 <path d="M1758 289 l3 -152 -84 5 -85 4 16 -33 16 -33 183 0 c101 0 183 3 181 8 -30 61 -25 58 -94 54 l-65 -4 3 151 3 151 -40 0 -40 0 3 -151z"/>
 <path d="M84 293 c12 -93 90 -166 191 -180 52 -7 58 10 8 20 -16 3 -37 13 -48 21 -18 14 -17 14 21 5 52 -13 113 2 151 37 31 28 31 28 -58 4 -54 -16 -88 -9 -126 25 l-28 24 148 1 c124 0 147 2 147 15 0 9 9 15 25 15 21 0 25 5 25 30 0 17 -4 30 -10 30 -5 0 -10 -7 -10 -15 0 -12 -13 -15 -60 -15 -33 0 -60 -4 -60 -10 0 -20 -47 -10 -70 15 -22 24 -29 25 -138 25 l-115 0 7 -47z m222 -15 c19 -23 19 -23 -2 -5 -25 21 -159 25 -167 5 -3 -8 -6 -6 -6 5 -1 15 9 17 77 17 69 0 81 -3 98 -22z"/>
 </g>
<g id="layer102" fill="#00943a" stroke="none">
 <path d="M315 641 c3 -6 16 -11 28 -11 29 0 117 -42 152 -71 61 -53 108 -177 98 -256 -9 -67 -44 -136 -95 -185 -107 -103 -265 -103 -379 0 -56 50 -75 81 -101 167 l-18 60 4 -61 c5 -77 41 -149 101 -202 155 -136 410 -82 502 106 24 49 28 69 28 142 0 73 -4 93 -28 142 -32 66 -81 112 -152 143 -57 26 -151 43 -140 26z"/>
 <path d="M696 563 c-3 -3 -6 -21 -6 -40 0 -41 27 -46 33 -5 l4 27 2 -27 c1 -30 27 -38 49 -16 9 9 12 9 12 0 0 -20 68 -15 73 6 4 16 5 16 6 0 1 -15 15 -17 121 -17 103 0 122 2 127 16 5 14 8 13 14 -5 11 -30 25 -28 37 6 9 24 10 25 11 5 2 -39 71 -25 71 13 0 39 -81 61 -95 27 -6 -17 -7 -17 -16 -2 -7 14 -28 17 -128 18 -105 0 -120 -2 -124 -17 -4 -16 -5 -16 -6 1 0 9 -7 17 -15 17 -8 0 -17 -8 -19 -17 -4 -17 -5 -17 -6 0 -1 24 -37 21 -55 -5 -16 -22 -16 -22 -16 -2 0 17 -7 21 -34 22 -18 1 -36 -2 -40 -5z m396 -45 c-9 -9 -12 -7 -12 12 0 19 3 21 12 12 9 -9 9 -15 0 -24z m120 0 c-9 -9 -12 -7 -12 12 0 19 3 21 12 12 9 -9 9 -15 0 -24z"/>
 <path d="M1260 530 c0 -35 3 -40 23 -40 13 0 28 5 35 12 9 9 12 9 12 0 0 -9 21 -12 78 -10 73 3 77 4 76 26 -1 31 12 27 25 -8 5 -16 15 -30 21 -30 6 0 8 5 5 10 -3 6 -1 10 5 10 6 0 9 4 5 9 -3 5 -1 12 5 16 5 3 10 -3 10 -14 0 -26 15 -27 25 -3 6 15 7 16 15 1 8 -13 27 -17 105 -17 52 0 98 4 101 9 3 5 -4 9 -16 9 -26 0 -24 33 2 38 11 2 20 -8 29 -32 16 -43 24 -45 37 -8 9 24 10 25 11 5 1 -27 8 -29 33 -6 17 15 18 15 18 0 0 -23 20 -22 20 1 1 13 4 11 14 -7 l14 -25 16 32 c9 17 16 39 16 49 -1 16 -2 16 -16 -2 -14 -19 -16 -19 -28 -2 -18 23 -32 22 -50 -5 l-16 -22 0 22 c0 26 -25 29 -40 5 -9 -17 -11 -17 -20 -1 -8 13 -28 16 -107 16 -54 0 -103 -4 -110 -10 -10 -8 -13 -7 -13 3 -1 9 -5 8 -15 -5 -13 -17 -15 -18 -15 -3 0 22 -26 22 -34 1 -6 -16 -8 -16 -24 0 -22 19 -38 21 -45 4 -4 -10 -6 -10 -6 0 -1 20 -110 16 -133 -5 -18 -16 -18 -16 -12 0 5 14 0 17 -25 17 -30 0 -31 -2 -31 -40z m27 -17 c-3 -10 -5 -2 -5 17 0 19 2 27 5 18 2 -10 2 -26 0 -35z"/>
 <path d="M243 489 c-45 -22 -77 -64 -88 -114 -5 -27 -4 -28 7 -11 7 11 29 38 49 59 30 34 43 40 87 45 41 4 58 0 84 -17 l33 -22 -52 6 c-54 7 -67 -1 -39 -24 9 -7 42 -11 87 -9 l73 3 -34 39 c-60 68 -131 83 -207 45z"/>
 <path d="M90 310 c0 -95 82 -179 191 -196 47 -8 49 9 2 19 -61 12 -153 107 -153 157 0 6 31 10 79 10 73 0 81 -2 99 -25 18 -23 26 -25 101 -25 65 0 81 3 81 15 0 9 9 15 25 15 21 0 25 5 25 30 0 17 -4 30 -10 30 -5 0 -10 -7 -10 -15 0 -15 -31 -20 -87 -15 -13 1 -23 -3 -23 -9 0 -21 -56 -11 -80 14 -22 24 -29 25 -132 25 l-108 0 0 -30z"/>
 </g>

</svg>